<?xml version="1.0" standalone="no"?>
<!DOCTYPE svg PUBLIC "-//W3C//DTD SVG 20010904//EN"
 "http://www.w3.org/TR/2001/REC-SVG-20010904/DTD/svg10.dtd">
<svg version="1.0" xmlns="http://www.w3.org/2000/svg"
 width="1337.000000pt" height="1337.000000pt" viewBox="0 0 1337.000000 1337.000000"
 preserveAspectRatio="xMidYMid meet">
<metadata>
Created by potrace 1.14, written by Peter Selinger 2001-2017
</metadata>
<g transform="translate(0.000000,1337.000000) scale(0.100000,-0.100000)"
fill="#000000" stroke="none">
<path d="M928 10245 c-2 -1 -28 -5 -58 -8 -88 -10 -121 -17 -188 -44 -255
-103 -425 -332 -507 -688 -40 -169 -50 -283 -49 -530 0 -206 7 -264 69 -585
26 -139 50 -296 62 -410 15 -146 8 -553 -11 -680 -2 -14 -7 -46 -10 -71 -7
-51 -10 -66 -25 -154 -14 -76 -14 -79 -42 -212 -23 -108 -23 -111 -5 -151 32
-71 63 -85 201 -92 196 -9 611 0 708 15 12 2 54 6 92 10 39 3 95 10 125 15 30
5 71 12 90 15 256 43 487 139 602 248 58 56 162 213 217 327 42 90 86 230 99
314 13 95 5 275 -17 361 -28 105 -107 264 -173 347 -58 73 -100 95 -162 85
-48 -8 -143 -72 -163 -110 -17 -33 -19 -106 -5 -134 39 -74 54 -277 28 -376
-45 -166 -179 -307 -364 -382 -82 -33 -102 -36 -135 -16 -30 17 -36 35 -62
176 -44 245 -161 503 -361 797 -136 199 -161 257 -188 427 -13 79 -14 272 -2
327 3 16 8 40 11 53 32 168 133 334 242 398 119 70 302 63 394 -15 75 -63 96
-166 74 -363 -11 -98 10 -132 119 -187 88 -45 151 -35 199 31 13 17 106 219
207 447 171 387 204 461 266 597 36 77 28 128 -26 170 -25 20 -85 15 -147 -13
-109 -48 -208 -68 -333 -68 -120 0 -148 5 -345 60 -66 19 -156 40 -200 49 -73
13 -220 26 -227 20z m202 -76 c30 -6 96 -22 145 -35 278 -76 325 -84 460 -79
108 3 221 29 317 72 63 28 103 26 113 -6 4 -13 -75 -202 -237 -567 -232 -522
-244 -548 -276 -561 -31 -13 -38 -12 -87 12 -30 14 -64 35 -76 48 -19 20 -20
29 -13 92 17 153 9 235 -29 315 -36 74 -124 140 -209 156 -288 53 -498 -111
-584 -457 -22 -85 -26 -129 -27 -239 -1 -149 3 -189 32 -300 28 -110 58 -170
154 -312 172 -251 284 -474 342 -674 27 -96 29 -103 40 -174 3 -25 9 -58 11
-75 6 -35 45 -90 77 -107 43 -23 107 -13 201 30 135 64 211 122 300 232 25 32
70 134 85 193 21 86 15 221 -15 332 -38 146 -35 159 53 211 78 45 117 23 205
-116 96 -152 139 -309 133 -479 -4 -114 -9 -140 -40 -246 -50 -164 -190 -405
-283 -484 -113 -97 -362 -190 -602 -224 -182 -27 -238 -32 -415 -44 -162 -10
-605 -6 -637 6 -15 6 -35 22 -44 36 -16 25 -15 33 14 178 31 152 46 233 57
317 3 25 8 56 10 70 26 168 27 671 1 805 -3 18 -10 58 -22 138 -11 74 -15 95
-24 137 -5 25 -12 59 -14 75 -3 17 -14 82 -25 145 -32 178 -36 223 -36 400 0
204 9 301 40 457 59 288 170 489 338 611 153 110 362 151 567 111z"/>
<path d="M3015 10234 c-298 -45 -507 -235 -624 -568 -35 -100 -66 -230 -76
-321 -4 -33 -9 -69 -12 -80 -9 -40 -11 -422 -2 -490 14 -108 20 -149 24 -165
2 -8 6 -31 9 -50 7 -41 14 -85 21 -120 10 -46 15 -75 25 -130 23 -134 27 -161
36 -240 3 -30 9 -80 14 -110 8 -57 6 -529 -3 -565 -3 -11 -8 -51 -12 -90 -4
-38 -9 -79 -11 -90 -3 -11 -7 -38 -9 -60 -3 -22 -20 -107 -37 -190 -17 -82
-32 -163 -33 -180 -5 -65 47 -137 108 -149 16 -3 217 -6 446 -6 473 0 465 -1
508 80 21 39 22 52 18 164 -2 66 -6 139 -9 161 -3 22 -10 76 -16 121 -6 44
-12 90 -14 101 -3 11 -7 37 -10 56 -13 79 -48 227 -77 322 -40 129 -41 188 -3
263 39 75 91 111 159 111 123 1 235 -114 263 -269 10 -55 9 -244 -2 -310 -3
-19 -8 -57 -11 -85 -12 -108 -67 -361 -104 -482 -33 -108 -12 -181 63 -217 29
-14 79 -16 346 -16 302 0 314 1 351 22 44 24 78 83 74 126 -4 41 -16 116 -20
122 -2 3 -6 37 -10 75 -4 39 -8 81 -11 95 -5 31 -5 396 0 430 2 14 7 59 10
100 4 41 8 86 10 100 35 219 28 361 -22 472 -48 106 -155 185 -278 204 -27 4
-52 9 -56 10 -5 1 -17 2 -28 3 -37 2 -20 27 46 66 302 176 410 385 408 790 0
143 -9 211 -44 341 -35 132 -34 217 7 414 8 41 17 85 19 98 6 33 -24 90 -56
107 -36 18 -80 10 -165 -30 -100 -48 -223 -77 -325 -78 -104 0 -158 11 -370
73 -91 27 -190 53 -220 59 -85 17 -207 19 -295 5z m320 -74 c44 -10 139 -36
210 -58 307 -93 479 -88 715 21 75 35 89 37 111 19 17 -13 17 -55 -1 -122 -5
-19 -12 -53 -15 -75 -4 -22 -10 -66 -15 -98 -13 -82 -5 -190 20 -272 11 -38
23 -83 25 -100 3 -16 9 -57 14 -90 15 -95 5 -307 -18 -415 -46 -208 -143 -334
-361 -466 -78 -47 -89 -60 -90 -100 0 -47 33 -70 120 -83 170 -26 258 -103
293 -258 18 -76 14 -238 -8 -352 -1 -9 -6 -47 -10 -86 -3 -38 -8 -90 -11 -115
-6 -54 -6 -389 0 -445 9 -88 17 -152 26 -200 17 -89 18 -100 3 -128 -8 -15
-25 -32 -39 -37 -40 -16 -603 -13 -634 3 -51 26 -54 54 -20 182 17 63 33 123
35 133 2 9 10 49 19 87 22 98 33 169 51 310 13 100 13 273 0 343 -16 80 -42
138 -92 200 -158 194 -427 127 -471 -117 -12 -67 -7 -103 29 -221 47 -157 87
-350 104 -515 4 -33 9 -71 11 -85 2 -14 7 -80 9 -147 l5 -121 -31 -31 -31 -31
-413 0 c-239 0 -424 4 -439 10 -14 5 -32 23 -41 41 -16 29 -15 37 4 118 38
159 72 370 90 566 9 90 7 524 -3 580 -2 17 -7 59 -11 95 -4 36 -8 72 -10 80
-3 8 -7 31 -10 50 -3 19 -8 46 -10 60 -3 14 -7 39 -10 55 -2 17 -13 75 -24
130 -11 55 -22 118 -25 140 -10 65 -16 98 -22 130 -3 17 -7 113 -9 215 -5 352
43 608 156 828 78 152 173 253 300 317 161 82 328 99 524 55z"/>
<path d="M3150 9607 c-136 -39 -229 -133 -279 -280 -32 -92 -48 -214 -45 -335
2 -96 14 -263 18 -271 2 -3 7 -28 10 -56 18 -130 91 -438 113 -472 8 -12 27
-26 44 -32 55 -19 102 4 134 65 62 123 204 326 279 400 52 52 163 180 189 218
149 217 130 532 -42 676 -47 39 -117 76 -164 86 -56 13 -215 13 -257 1z m284
-74 c186 -69 271 -318 187 -544 -30 -78 -66 -130 -171 -244 -109 -119 -191
-218 -247 -300 -48 -70 -123 -202 -123 -217 0 -5 -15 -8 -32 -6 -31 3 -34 6
-51 68 -22 83 -66 274 -73 320 -36 238 -36 245 -36 385 0 144 3 171 27 264 42
161 127 258 259 292 50 13 206 2 260 -18z"/>
<path d="M7530 10234 c-131 -19 -254 -74 -354 -158 -147 -122 -264 -341 -315
-587 -20 -97 -21 -103 -27 -149 -17 -132 -21 -210 -21 -360 0 -171 12 -273 61
-530 38 -201 56 -315 63 -383 3 -34 9 -82 13 -105 8 -45 6 -522 -3 -557 -2
-11 -8 -51 -11 -90 -9 -92 -51 -340 -74 -436 -29 -119 -18 -176 41 -220 l32
-24 705 -3 c502 -2 716 0 744 8 44 13 82 51 94 95 20 68 -27 254 -99 391 -79
152 -152 237 -362 423 -90 80 -119 112 -127 140 -22 80 -6 118 88 208 65 61
173 127 382 233 80 40 163 84 185 98 259 162 391 397 424 752 8 96 6 362 -3
455 -19 174 -27 248 -32 275 -10 63 -4 251 10 318 21 98 15 133 -31 166 -42
31 -88 24 -183 -28 -162 -90 -210 -109 -285 -114 -91 -5 -176 15 -335 80 -123
49 -260 99 -270 98 -3 -1 -27 2 -54 6 -86 11 -168 11 -256 -2z m285 -65 c64
-14 153 -45 285 -99 130 -53 216 -76 300 -79 110 -4 150 10 373 127 43 23 85
38 93 35 24 -9 35 -50 25 -91 -5 -21 -12 -53 -15 -72 -7 -45 -8 -257 -1 -290
2 -14 8 -59 11 -100 3 -41 7 -77 9 -80 8 -13 19 -213 19 -335 0 -125 -9 -279
-19 -307 -2 -7 -6 -29 -9 -48 -22 -155 -118 -336 -233 -440 -96 -87 -167 -131
-388 -241 -295 -147 -427 -263 -442 -387 -11 -95 16 -139 167 -272 219 -192
313 -314 381 -495 26 -69 23 -59 42 -151 17 -84 7 -122 -37 -142 -35 -16
-1397 -18 -1427 -2 -24 13 -49 62 -45 86 2 11 15 73 29 139 14 66 28 140 32
165 3 25 8 52 10 60 2 8 7 40 11 70 4 30 8 66 10 80 26 186 26 630 -1 792 -2
13 -9 59 -15 103 -7 44 -14 89 -16 100 -2 11 -9 47 -14 80 -6 33 -15 80 -20
105 -5 25 -12 61 -15 80 -8 50 -23 139 -30 180 -11 55 -13 397 -4 485 44 420
174 701 389 844 88 59 191 98 280 108 30 3 56 7 58 8 7 6 161 -6 207 -16z"/>
<path d="M7743 9619 c-174 -16 -313 -141 -362 -324 -30 -114 -43 -333 -27
-460 3 -22 8 -62 11 -90 2 -27 6 -59 9 -70 5 -27 19 -106 21 -125 7 -44 39
-186 62 -267 28 -102 50 -131 106 -140 54 -8 81 15 128 110 80 160 183 300
341 465 89 94 165 194 191 252 29 68 34 252 7 343 -63 221 -234 329 -487 306z
m225 -85 c137 -51 222 -195 222 -379 0 -127 -37 -215 -136 -322 -226 -242
-310 -350 -394 -508 -70 -132 -75 -137 -107 -117 -26 16 -111 377 -128 542 -4
36 -9 79 -11 95 -6 44 -5 275 1 310 27 154 60 236 122 303 94 101 276 133 431
76z"/>
<path d="M9093 10224 c-41 -14 -69 -47 -83 -96 -8 -30 -6 -52 10 -115 11 -43
23 -94 26 -113 3 -19 8 -38 10 -42 22 -35 21 -484 -1 -599 -7 -37 -19 -165
-19 -206 -1 -86 64 -134 181 -136 124 -1 172 36 188 148 23 154 137 352 242
416 67 41 147 18 182 -54 23 -46 22 -51 -29 -227 -60 -203 -115 -492 -145
-760 -2 -25 -7 -65 -10 -90 -3 -25 -7 -70 -10 -100 -3 -30 -7 -71 -10 -90 -9
-64 -15 -115 -19 -165 -5 -47 -11 -92 -21 -160 -2 -16 -7 -52 -10 -80 -4 -27
-10 -75 -15 -105 -5 -30 -12 -75 -15 -100 -4 -25 -10 -63 -15 -85 -5 -22 -11
-60 -15 -85 -3 -25 -10 -61 -15 -80 -5 -19 -11 -48 -13 -65 -6 -37 -46 -201
-87 -353 -30 -115 -30 -127 2 -189 6 -13 30 -32 53 -43 40 -19 61 -20 666 -20
l625 0 42 27 c22 15 47 41 54 57 27 66 -3 365 -63 631 -29 127 -130 468 -158
530 -5 11 -26 65 -47 120 -20 55 -68 172 -106 260 -100 229 -160 394 -193 525
-59 235 -70 474 -29 593 31 90 124 149 210 132 104 -19 196 -139 219 -285 3
-19 7 -46 10 -60 2 -14 7 -52 10 -85 11 -113 56 -154 171 -156 86 -2 135 18
165 68 19 31 21 43 15 121 -7 99 -15 166 -22 202 -3 14 -7 115 -9 225 -4 212
5 302 44 453 34 130 27 171 -35 218 l-37 29 -930 0 c-670 0 -940 -3 -964 -11z
m1901 -73 c28 -26 33 -61 16 -106 -5 -14 -12 -40 -15 -58 -3 -18 -10 -48 -15
-67 -19 -72 -25 -160 -25 -340 1 -167 11 -365 21 -381 2 -4 7 -43 10 -87 6
-77 6 -81 -19 -106 -22 -22 -35 -26 -87 -26 -94 0 -117 20 -126 108 -22 209
-60 315 -145 400 -105 106 -273 105 -367 -3 -65 -73 -83 -158 -78 -355 3 -80
7 -156 10 -170 7 -30 14 -65 21 -105 24 -135 90 -326 205 -597 115 -267 247
-629 275 -748 2 -8 15 -60 29 -115 14 -55 27 -112 30 -128 3 -15 7 -35 10 -45
5 -16 10 -50 21 -129 3 -21 7 -51 10 -68 10 -69 18 -174 18 -229 0 -54 -3 -62
-29 -83 l-29 -23 -613 0 c-671 0 -664 -1 -679 58 -9 34 -6 51 18 127 11 33 21
69 23 80 2 11 11 47 20 80 16 64 61 269 69 320 27 161 39 235 43 265 2 19 6
46 9 60 3 14 7 45 10 70 6 53 12 100 25 195 5 39 12 95 15 125 3 30 8 71 10
90 2 19 7 60 10 90 3 30 8 71 10 90 2 19 7 60 10 90 4 30 8 66 10 80 2 14 6
48 10 75 24 199 84 474 150 693 26 87 26 133 0 182 -37 71 -130 116 -206 99
-132 -30 -279 -234 -328 -455 -23 -102 -41 -123 -105 -125 -139 -4 -164 21
-146 150 24 185 31 279 34 446 2 153 -12 281 -48 423 -28 112 -25 142 21 165
17 9 251 12 942 12 l920 0 25 -24z"/>
<path d="M12573 10213 c-5 -1 -132 -4 -283 -7 -151 -2 -288 -7 -305 -11 -16
-3 -66 -13 -110 -21 -336 -67 -570 -273 -682 -599 -24 -72 -50 -174 -59 -235
-3 -19 -7 -42 -9 -50 -10 -37 -19 -197 -19 -325 0 -183 6 -230 61 -525 19
-102 37 -201 39 -220 2 -19 9 -60 14 -90 10 -59 20 -151 26 -240 5 -68 4 -374
-1 -415 -2 -16 -6 -64 -10 -105 -3 -41 -8 -84 -10 -95 -2 -11 -7 -40 -10 -65
-5 -42 -39 -239 -50 -285 -36 -163 -35 -196 8 -244 46 -50 43 -50 642 -46 308
2 582 7 610 10 107 12 133 17 209 36 245 60 425 228 525 489 22 56 50 154 57
200 2 14 7 36 10 50 3 13 8 40 10 60 2 19 7 46 9 60 9 47 18 235 18 360 -1
132 -20 300 -52 466 -11 54 -23 113 -25 129 -3 17 -8 41 -11 55 -2 13 -7 40
-10 60 -3 20 -7 45 -9 55 -43 239 -52 609 -20 855 5 41 37 251 50 325 3 17 14
67 24 113 11 46 20 98 20 115 0 45 -31 98 -71 122 -32 18 -53 20 -306 20 -150
0 -276 -1 -280 -2z m573 -86 c30 -35 30 -46 0 -182 -14 -61 -27 -128 -31 -149
-3 -21 -7 -48 -10 -60 -5 -24 -11 -65 -20 -146 -4 -30 -9 -66 -11 -79 -23
-153 -23 -514 1 -701 10 -87 17 -131 25 -180 5 -30 12 -71 15 -90 3 -19 19
-105 35 -190 47 -245 54 -312 53 -480 -1 -187 -13 -321 -44 -474 -74 -367
-251 -583 -536 -655 -155 -40 -191 -42 -808 -46 -491 -3 -553 -1 -577 13 -24
14 -53 64 -43 74 5 5 74 358 80 413 4 28 8 60 10 72 2 12 6 57 10 100 4 43 9
89 11 103 5 32 5 394 0 440 -2 19 -7 67 -11 105 -3 39 -10 95 -15 125 -5 30
-12 73 -15 95 -3 22 -21 121 -40 220 -32 170 -38 203 -51 300 -18 127 -7 439
21 585 81 429 292 676 650 764 140 35 158 36 460 42 149 3 273 6 278 7 4 1
127 2 273 2 l266 0 24 -28z"/>
<path d="M12165 9600 c-45 -10 -68 -28 -104 -80 -65 -95 -134 -322 -157 -515
0 -5 -4 -30 -7 -55 -14 -94 -17 -129 -24 -260 -16 -295 -5 -630 28 -845 39
-259 88 -425 156 -528 42 -64 77 -87 131 -87 100 0 190 157 248 431 21 100 33
180 49 329 23 219 23 674 0 855 -2 17 -7 53 -10 80 -36 312 -118 563 -207 639
-45 39 -62 45 -103 36z m72 -92 c17 -18 40 -51 51 -73 36 -75 95 -280 106
-375 3 -25 8 -54 10 -65 2 -12 7 -48 11 -80 4 -33 8 -70 10 -82 22 -145 22
-699 0 -833 -2 -14 -7 -50 -10 -81 -5 -49 -41 -266 -49 -294 -1 -5 -8 -30 -15
-55 -60 -221 -145 -326 -211 -260 -57 57 -104 171 -143 350 -24 109 -30 145
-43 250 -3 25 -7 59 -10 75 -31 226 -19 829 21 1020 3 11 7 37 10 57 2 21 9
57 14 80 6 24 12 54 14 68 10 56 68 212 93 252 54 86 91 98 141 46z"/>
<path d="M4840 10199 c-33 -14 -59 -38 -77 -73 -14 -28 -79 -235 -87 -281 -2
-11 -11 -47 -19 -80 -9 -33 -19 -76 -22 -95 -3 -19 -10 -57 -15 -85 -18 -95
-22 -151 -25 -330 -7 -356 49 -558 195 -704 108 -110 232 -164 514 -226 195
-43 270 -66 361 -112 223 -111 349 -297 359 -530 8 -190 -70 -282 -241 -286
-190 -4 -353 99 -402 254 -25 77 -30 188 -13 271 5 26 8 58 7 70 -1 13 -3 31
-4 40 -4 50 -123 128 -196 128 -78 0 -117 -40 -160 -165 -15 -44 -38 -107 -50
-140 -13 -33 -65 -177 -115 -320 -50 -143 -95 -269 -100 -280 -5 -11 -25 -65
-44 -120 -19 -55 -53 -152 -76 -215 -46 -128 -49 -178 -11 -226 51 -64 109
-75 206 -39 160 61 349 75 535 41 19 -4 103 -22 187 -41 201 -46 235 -50 393
-49 215 1 352 50 502 182 49 43 140 172 172 242 16 36 32 72 36 80 18 38 62
211 77 303 18 111 24 481 10 597 -15 127 -45 253 -133 560 -75 262 -88 345
-88 555 0 211 14 362 50 520 9 39 18 82 20 97 3 15 27 93 53 173 40 121 47
153 40 179 -13 44 -40 78 -80 99 -31 16 -62 17 -316 15 -267 -3 -283 -4 -309
-24 -65 -48 -75 -83 -61 -209 21 -183 27 -472 14 -635 -31 -383 -187 -682
-320 -613 -41 21 -61 45 -102 128 -52 103 -86 237 -102 403 -11 104 -10 521 1
657 16 197 11 223 -51 265 -36 25 -39 25 -262 27 -135 1 -236 -2 -251 -8z
m469 -64 c29 -15 48 -53 45 -90 -15 -174 -19 -261 -19 -485 0 -287 4 -339 41
-519 45 -218 147 -375 251 -383 81 -7 141 32 206 133 81 128 135 320 155 549
13 154 5 528 -14 623 -9 47 -6 124 5 145 7 13 23 27 37 32 14 6 138 10 276 10
208 0 256 -3 284 -16 46 -22 54 -65 25 -140 -50 -131 -99 -332 -121 -494 -6
-41 -13 -88 -16 -105 -9 -59 -12 -411 -3 -465 5 -30 11 -70 14 -87 10 -66 27
-133 90 -358 64 -225 96 -365 112 -475 10 -70 10 -425 0 -510 -35 -300 -117
-500 -267 -651 -87 -88 -196 -148 -315 -172 -78 -16 -246 -20 -315 -7 -25 5
-58 10 -75 13 -16 3 -82 17 -145 32 -131 30 -198 43 -255 52 -58 8 -231 8
-295 -1 -55 -8 -209 -50 -239 -65 -45 -24 -121 21 -121 71 0 22 32 113 276
793 81 226 153 428 161 450 17 48 55 85 89 85 30 0 93 -31 117 -58 23 -26 27
-51 16 -103 -12 -51 -14 -188 -4 -244 36 -200 217 -348 439 -359 146 -7 243
39 309 146 28 45 41 210 24 298 -30 154 -114 294 -236 394 -116 96 -260 154
-506 206 -272 58 -399 111 -495 209 -48 48 -93 105 -95 121 -1 3 -9 23 -19 45
-56 125 -76 268 -71 505 5 224 3 209 71 540 10 51 76 266 90 296 8 17 25 36
37 42 13 6 104 11 225 11 160 1 209 -2 231 -14z"/>
<path d="M11968 6505 c-1 -1 -25 -6 -51 -9 -85 -12 -202 -57 -283 -111 -221
-147 -302 -422 -233 -787 17 -87 6 -151 -43 -248 -24 -47 -44 -95 -45 -107 -3
-43 28 -61 197 -117 596 -195 1006 -468 1086 -721 22 -73 16 -183 -15 -243
-34 -66 -95 -127 -154 -152 -41 -18 -69 -23 -136 -22 -46 1 -91 4 -100 6 -9 3
-31 8 -49 11 -76 13 -165 58 -217 111 -74 73 -98 139 -99 264 0 52 3 115 8
140 10 63 -5 95 -61 130 -62 39 -111 40 -153 3 -17 -16 -32 -37 -35 -48 -2
-11 -19 -63 -38 -115 -19 -52 -60 -167 -92 -255 -31 -88 -60 -169 -65 -180 -4
-11 -47 -130 -95 -265 -47 -135 -91 -256 -96 -270 -28 -64 -27 -109 2 -132 30
-25 56 -22 134 13 101 45 218 68 334 64 102 -3 153 -13 351 -69 69 -19 157
-39 195 -45 69 -9 267 -8 315 3 14 3 39 8 55 12 118 23 269 95 356 171 183
159 272 376 286 695 7 144 -1 200 -52 364 -70 226 -82 332 -50 471 11 50 13
77 6 96 -14 36 -54 60 -88 53 -35 -8 -71 -15 -163 -33 -14 -2 -95 -6 -181 -7
-159 -4 -278 10 -429 49 -242 62 -406 232 -415 428 -6 112 39 204 123 258 59
37 111 51 187 51 171 -1 298 -77 338 -202 13 -40 16 -76 12 -161 -6 -127 -2
-137 71 -180 80 -45 135 -36 172 30 11 20 111 244 222 499 187 428 201 465
190 491 -21 52 -48 55 -152 14 -179 -69 -309 -75 -512 -22 -265 69 -307 77
-423 77 -61 0 -113 -1 -115 -3z"/>
<path d="M868 6485 c-2 -2 -23 -5 -49 -8 -59 -7 -151 -39 -214 -73 -71 -39
-193 -166 -238 -249 -41 -74 -112 -273 -121 -340 -3 -22 -8 -51 -11 -65 -13
-65 -20 -182 -19 -350 0 -179 12 -288 54 -480 11 -49 15 -71 30 -170 6 -36 13
-76 15 -90 20 -113 28 -498 13 -650 -8 -75 -33 -252 -43 -300 -2 -14 -15 -73
-27 -132 -25 -121 -21 -148 25 -182 28 -21 35 -21 652 -21 l625 0 30 30 c38
39 41 62 19 163 -44 202 -153 364 -374 557 -131 115 -151 148 -135 218 10 47
20 62 75 118 66 67 131 108 325 208 191 97 257 140 329 212 163 164 223 356
225 719 0 93 -16 295 -30 370 -12 69 -16 260 -5 310 24 121 24 128 -3 155 -33
33 -55 32 -129 -9 -136 -75 -164 -88 -212 -100 -100 -26 -189 -9 -395 74 -153
63 -216 79 -324 84 -47 2 -87 2 -88 1z m372 -584 c103 -36 121 -40 245 -46 95
-4 131 -16 121 -40 -2 -7 22 -35 54 -63 112 -99 131 -197 65 -339 -88 -194
-375 -438 -760 -648 -27 -15 -59 -36 -71 -46 -11 -11 -28 -19 -38 -19 -52 0
-65 30 -116 265 -45 205 -55 295 -54 475 1 191 33 305 111 390 102 113 253
138 443 71z"/>
<path d="M4395 6475 c-209 -38 -357 -151 -460 -350 -42 -82 -98 -260 -114
-360 -30 -200 -33 -467 -6 -628 9 -51 25 -142 30 -167 3 -14 9 -50 15 -80 6
-30 12 -66 15 -80 5 -21 18 -108 31 -200 17 -127 23 -416 10 -545 -4 -38 -9
-92 -12 -120 -5 -59 -51 -325 -64 -375 -25 -99 -18 -146 28 -176 25 -17 67
-18 647 -18 581 0 622 1 647 18 67 44 54 176 -37 363 -56 115 -136 216 -256
323 -150 133 -177 163 -184 203 -12 61 2 99 55 160 64 71 144 124 352 230 204
104 243 130 333 221 112 113 180 275 204 482 13 121 5 423 -14 534 -20 113
-24 312 -9 386 19 88 17 121 -7 145 -30 30 -65 21 -174 -40 -117 -66 -174 -85
-256 -84 -80 1 -143 19 -305 84 -197 79 -326 99 -469 74z m383 -558 c65 -23
118 -64 155 -121 46 -69 57 -106 64 -207 11 -157 -18 -217 -187 -399 -52 -56
-121 -136 -153 -178 -55 -73 -157 -242 -157 -260 0 -18 -42 -52 -65 -52 -45 0
-73 68 -115 279 -26 135 -29 149 -36 211 -3 30 -8 64 -10 75 -7 32 -6 266 1
310 30 195 117 314 255 351 58 16 193 11 248 -9z"/>
<path d="M2622 6448 c-48 -13 -123 -70 -175 -134 -88 -108 -158 -286 -191
-489 -24 -146 -25 -153 -31 -320 -9 -275 -12 -299 -51 -485 -27 -130 -35 -163
-94 -380 -23 -85 -43 -162 -45 -171 -2 -9 -15 -64 -29 -121 -27 -108 -70 -320
-81 -398 -3 -25 -8 -56 -10 -70 -14 -95 -26 -230 -30 -335 -3 -102 9 -139 53
-157 33 -13 564 -18 603 -6 53 18 58 52 26 173 -25 91 -28 114 -27 195 0 274
179 446 363 350 47 -25 69 -49 102 -112 66 -125 75 -292 24 -453 -10 -33 -19
-72 -19 -87 0 -30 30 -64 63 -70 12 -2 146 -3 297 -3 197 1 281 5 297 13 41
23 53 62 48 159 -6 116 -25 295 -40 388 -10 59 -15 90 -19 111 -2 12 -7 37
-10 55 -10 62 -24 133 -56 274 -17 77 -33 147 -35 155 -2 8 -46 184 -98 390
-96 376 -139 563 -154 675 -16 117 -10 406 12 520 10 56 17 100 16 100 -1 0 8
27 19 59 23 67 25 95 9 129 -23 50 -30 51 -381 52 -180 0 -340 -3 -356 -7z
m240 -699 c14 -28 61 -189 73 -247 15 -82 35 -195 40 -232 3 -25 8 -56 10 -70
9 -60 19 -201 19 -265 -1 -139 -75 -206 -220 -199 -125 6 -188 72 -188 198 1
60 12 217 18 253 2 10 7 43 11 73 16 130 45 272 81 397 30 103 45 130 76 135
38 6 62 -7 80 -43z"/>
<path d="M6193 6444 c-129 -45 -257 -230 -322 -468 -25 -93 -37 -159 -56 -326
-3 -25 -7 -121 -10 -215 -2 -93 -7 -188 -10 -210 -3 -22 -8 -55 -11 -74 -10
-75 -47 -236 -95 -416 -45 -171 -95 -365 -104 -405 -2 -8 -9 -37 -15 -65 -15
-64 -19 -83 -25 -120 -3 -16 -8 -37 -10 -45 -2 -8 -6 -31 -9 -50 -3 -19 -8
-46 -10 -59 -3 -13 -8 -49 -11 -80 -4 -31 -8 -63 -10 -71 -4 -15 -12 -84 -20
-175 -2 -27 -5 -90 -6 -139 -2 -89 -2 -89 29 -118 18 -15 40 -29 50 -29 9 -1
139 -2 287 -3 291 -3 317 1 335 49 6 17 2 48 -16 112 -72 255 -12 492 145 573
13 7 52 13 85 13 51 1 71 -4 110 -27 134 -78 187 -315 122 -549 -29 -104 -28
-123 5 -153 19 -17 42 -19 297 -19 152 -1 291 2 307 7 17 4 41 20 54 35 23 27
24 30 17 153 -3 69 -8 141 -11 160 -2 19 -7 55 -10 80 -13 102 -16 126 -20
150 -3 14 -7 39 -10 55 -27 168 -72 374 -130 605 -25 102 -48 192 -50 200 -2
8 -27 107 -55 220 -29 113 -53 212 -55 220 -2 8 -9 38 -15 65 -15 63 -15 63
-34 165 -50 267 -39 547 29 784 26 91 20 135 -22 163 -24 16 -61 18 -356 18
-223 0 -341 -3 -364 -11z m239 -671 c18 -16 43 -92 77 -233 22 -95 25 -107 41
-217 7 -43 14 -87 16 -98 9 -45 18 -186 19 -276 0 -86 -3 -99 -25 -132 -38
-56 -103 -85 -183 -81 -132 5 -201 76 -198 202 2 96 10 172 37 377 14 107 73
358 100 425 23 56 72 70 116 33z"/>
<path d="M7668 6452 c-15 -2 -38 -16 -52 -33 -49 -58 -140 -415 -161 -634 -6
-63 -6 -285 0 -335 21 -158 46 -240 102 -330 87 -138 203 -199 518 -270 94
-21 193 -47 222 -58 183 -70 316 -196 373 -353 25 -68 31 -109 31 -199 -1
-128 -62 -215 -166 -238 -152 -32 -337 43 -412 167 -53 89 -60 153 -38 368 8
78 -125 153 -200 113 -32 -17 -33 -20 -185 -445 -202 -565 -217 -607 -234
-654 -24 -66 -21 -104 13 -140 35 -38 72 -40 157 -10 171 60 340 61 589 6 226
-50 258 -55 365 -55 118 0 197 15 285 56 191 90 311 262 370 531 33 150 37
185 40 376 3 162 -6 255 -36 390 -6 28 -12 59 -15 70 -2 11 -13 52 -24 90 -12
39 -23 77 -25 85 -2 8 -19 71 -38 140 -19 69 -40 154 -45 190 -6 36 -14 83
-17 105 -7 40 -7 255 0 310 2 17 6 57 9 90 15 146 45 283 98 442 44 133 44
156 2 198 -30 30 -5 27 -283 29 -245 1 -268 -3 -299 -53 -16 -26 -17 -41 -11
-88 28 -199 29 -565 4 -708 -37 -206 -99 -353 -180 -424 -120 -105 -251 51
-300 356 -26 160 -35 413 -21 598 3 39 8 106 12 150 11 157 -6 169 -245 170
-97 0 -188 -1 -203 -3z"/>
<path d="M10027 6449 c-179 -48 -342 -349 -382 -704 -4 -33 -9 -69 -11 -80 -2
-11 -6 -101 -9 -200 -3 -99 -7 -198 -10 -220 -3 -22 -8 -58 -11 -80 -10 -77
-45 -231 -84 -380 -57 -216 -121 -466 -126 -495 -3 -14 -9 -41 -14 -60 -14
-54 -59 -308 -66 -375 -3 -33 -8 -68 -10 -77 -3 -20 -14 -164 -18 -255 -4 -71
12 -113 51 -134 33 -18 570 -21 613 -3 46 20 51 56 22 149 -33 107 -37 291 -8
375 51 146 123 213 231 213 115 1 187 -55 234 -184 47 -128 47 -243 1 -406
-25 -91 -25 -96 4 -130 l24 -27 283 -1 c156 -1 296 3 312 8 15 5 37 21 48 35
20 25 21 35 15 142 -4 63 -8 129 -10 145 -2 17 -7 59 -11 95 -4 36 -8 72 -10
80 -6 36 -17 102 -19 123 -2 12 -6 36 -9 52 -4 17 -9 46 -12 65 -17 104 -86
404 -162 700 -88 345 -109 430 -117 471 -2 13 -11 53 -20 89 -16 66 -17 77
-42 230 -15 96 -12 353 6 464 11 74 31 162 53 236 7 25 11 55 9 67 -3 23 -47
72 -66 74 -41 5 -660 3 -679 -2z m231 -681 c9 -11 34 -90 57 -178 12 -46 54
-263 60 -310 4 -30 9 -64 11 -75 9 -43 18 -184 18 -265 1 -74 -3 -90 -24 -122
-35 -51 -89 -80 -158 -82 -147 -6 -227 66 -225 204 0 34 12 180 18 230 1 14 6
50 9 80 4 30 9 62 11 70 2 8 7 35 10 60 15 110 89 383 108 398 29 24 81 19
105 -10z"/>
<path d="M9361 3154 c-24 -13 -52 -24 -62 -24 -10 0 -21 -4 -24 -10 -3 -5 0
-10 7 -10 36 -1 41 -17 46 -148 4 -125 3 -131 -17 -144 -31 -19 -26 -24 22
-22 23 1 65 2 92 3 l50 2 -26 19 c-28 21 -26 1 -32 262 -2 48 -5 89 -7 91 -3
2 -25 -6 -49 -19z"/>
<path d="M9796 3161 c-25 -27 -17 -63 17 -79 24 -12 31 -11 53 2 29 20 32 56
6 79 -25 22 -55 21 -76 -2z"/>
<path d="M9026 3152 c-3 -5 -30 -82 -60 -171 -57 -167 -68 -191 -92 -191 -8 0
-14 -5 -14 -11 0 -8 18 -10 58 -6 31 4 63 6 70 7 21 0 3 20 -19 20 -19 0 -23
9 -19 45 3 32 16 38 82 42 l63 4 13 -33 c11 -30 10 -35 -8 -50 -24 -19 -17
-25 25 -22 17 1 56 2 88 3 60 1 72 11 35 28 -15 8 -51 67 -108 177 -77 151
-99 182 -114 158z m44 -229 c0 -9 -17 -13 -51 -13 -44 0 -50 2 -45 17 4 9 14
39 23 66 l16 50 28 -54 c15 -30 28 -60 29 -66z"/>
<path d="M10880 3104 c-19 -7 -47 -13 -62 -13 -32 -1 -37 -17 -8 -26 16 -5 20
-15 20 -46 l0 -40 -30 16 c-48 25 -92 19 -134 -18 -31 -26 -39 -41 -43 -78 -7
-62 16 -105 70 -130 46 -20 84 -24 106 -10 10 6 22 5 35 -5 27 -19 81 -18 100
2 21 21 20 27 -4 21 -14 -4 -20 0 -21 11 -1 25 2 93 6 112 2 9 6 53 10 96 4
43 8 89 10 102 4 25 -4 26 -55 6z m-97 -132 c42 -47 41 -184 -2 -195 -26 -7
-38 3 -56 47 -20 48 -17 120 7 146 23 25 30 25 51 2z"/>
<path d="M8165 3055 c-22 -14 -48 -25 -57 -25 -10 0 -18 -7 -18 -16 0 -8 4
-13 9 -9 12 7 41 -22 42 -43 0 -9 2 -26 5 -37 2 -11 6 -36 8 -55 2 -19 7 -63
11 -98 4 -34 12 -65 16 -68 5 -3 22 4 38 15 27 20 31 20 66 5 59 -24 130 -1
153 52 17 36 15 102 -5 135 -18 31 -67 59 -102 59 -12 0 -37 -7 -56 -14 -19
-8 -35 -14 -36 -13 -3 8 -8 49 -12 86 -2 25 -8 46 -13 48 -5 1 -27 -9 -49 -22z
m159 -140 c24 -25 46 -86 46 -125 0 -50 -43 -68 -78 -33 -40 39 -57 154 -24
172 25 15 31 14 56 -14z"/>
<path d="M9533 3034 c-60 -30 -82 -95 -54 -162 36 -87 192 -99 244 -19 20 30
12 41 -17 22 -11 -8 -33 -16 -47 -18 -27 -5 -89 19 -89 34 0 5 0 12 0 17 0 4
3 7 8 8 19 2 109 16 130 20 24 5 29 32 12 65 -25 46 -124 64 -187 33z m95 -17
c6 -7 13 -25 16 -39 4 -24 1 -27 -34 -33 -22 -4 -44 -4 -49 -1 -9 6 -1 52 14
76 9 14 40 13 53 -3z"/>
<path d="M9847 3035 c-11 -7 -36 -17 -58 -20 -37 -6 -55 -25 -24 -25 24 0 33
-31 33 -120 0 -47 4 -101 10 -122 11 -40 2 -58 -30 -58 -13 0 -18 8 -18 25 0
14 5 25 11 25 22 0 3 34 -24 41 -23 6 -30 3 -44 -17 -44 -68 85 -134 150 -77
27 25 36 78 37 226 0 144 -3 153 -43 122z"/>
<path d="M9979 3034 c-32 -16 -43 -42 -28 -61 20 -23 54 -12 57 19 5 46 57 47
68 2 10 -39 -2 -54 -41 -54 -42 0 -90 -22 -103 -48 -21 -39 8 -89 53 -93 61
-6 77 -5 92 6 13 10 22 9 42 -1 36 -19 97 -18 105 1 3 10 -1 15 -14 15 -15 0
-20 10 -25 58 -9 88 -23 131 -50 148 -32 21 -123 26 -156 8z m107 -190 c-7
-19 -53 -18 -64 2 -15 26 -3 51 31 68 l32 15 3 -35 c2 -20 1 -42 -2 -50z"/>
<path d="M10335 3015 c-16 -8 -42 -14 -57 -15 -16 0 -28 -4 -28 -10 0 -5 7
-10 15 -10 21 0 33 -36 30 -86 -4 -61 -14 -84 -36 -84 -24 0 -26 -20 -1 -20 9
-1 49 -3 89 -5 41 -3 75 0 78 5 3 6 -1 10 -9 10 -25 0 -36 34 -30 96 6 66 25
95 55 87 25 -7 36 -34 41 -103 4 -48 2 -57 -20 -77 -22 -21 -23 -23 -6 -23 10
-1 53 -3 94 -6 74 -5 75 -5 52 13 -18 15 -24 32 -28 78 -7 96 -13 121 -33 139
-26 23 -87 29 -122 12 -25 -13 -29 -13 -29 0 0 17 -15 17 -55 -1z"/>
<path d="M8685 3002 c-43 -4 -74 -22 -37 -22 26 0 29 -24 7 -76 -8 -19 -14
-37 -14 -40 2 -19 -11 -6 -39 41 -30 50 -35 84 -11 70 5 -3 6 0 3 8 -4 11 -15
12 -47 6 -23 -4 -59 -8 -79 -9 -21 0 -38 -4 -38 -10 0 -5 7 -10 15 -10 15 0
68 -67 128 -164 l36 -59 -21 -30 c-19 -26 -25 -29 -60 -24 -31 4 -40 1 -48
-14 -21 -39 28 -82 69 -60 35 19 58 64 96 191 42 139 57 175 81 188 23 13 7
18 -41 14z"/>
<path d="M11820 2990 c-107 -14 -170 -83 -170 -184 0 -118 85 -194 229 -203
42 -2 79 -9 83 -16 12 -17 25 7 34 62 4 25 8 48 9 51 9 27 20 40 35 40 11 0
21 4 24 8 6 10 -70 29 -149 38 l-50 6 24 -20 c21 -17 23 -25 18 -67 -9 -60
-21 -75 -63 -75 -37 0 -69 25 -84 66 -17 42 -11 135 10 179 35 74 64 95 119
89 58 -7 96 -41 104 -93 5 -31 15 -36 21 -10 16 74 14 129 -4 100 -5 -9 -14
-9 -36 0 -66 26 -111 35 -154 29z"/>
<path d="M11060 2955 c-19 -7 -45 -12 -57 -10 -29 3 -29 -5 -2 -29 18 -15 20
-25 15 -70 -7 -69 -13 -83 -39 -90 -23 -6 -17 -18 11 -23 9 -1 49 -5 87 -9
l70 -6 -23 22 c-20 19 -22 28 -17 78 9 82 13 92 40 92 23 0 40 -24 29 -41 -9
-15 23 -21 45 -9 30 15 38 56 16 80 -22 24 -77 26 -99 4 -15 -14 -16 -14 -16
5 0 23 -9 24 -60 6z"/>
<path d="M11336 2928 c-22 -5 -48 -17 -58 -28 -85 -91 -15 -220 119 -220 42 0
56 5 89 34 37 32 39 37 39 89 0 41 -5 61 -20 77 -41 46 -102 63 -169 48z m83
-40 c7 -12 15 -44 16 -72 4 -85 -22 -129 -65 -106 -55 29 -44 200 12 200 13 0
29 -10 37 -22z"/>
<path d="M12195 2910 c-11 -5 -39 -9 -62 -9 -24 -1 -43 -5 -43 -11 0 -5 5 -10
10 -10 24 0 25 -45 5 -144 -24 -111 -38 -146 -60 -146 -8 0 -15 -4 -15 -9 0
-4 37 -16 83 -25 97 -19 97 -19 97 -6 0 6 -6 10 -14 10 -27 0 -26 36 4 181 17
79 32 150 33 158 3 18 -12 22 -38 11z"/>
<path d="M12668 2752 c-18 -26 -56 -45 -92 -46 -33 -1 -50 -26 -17 -26 25 0
25 2 3 -85 -10 -38 -17 -76 -16 -82 1 -7 2 -20 3 -28 1 -16 41 -45 68 -49 26
-5 73 22 73 40 0 13 -3 14 -14 5 -24 -20 -46 12 -36 51 5 18 14 52 20 76 11
41 13 43 41 37 22 -5 29 -3 29 9 0 8 -10 16 -22 18 -24 3 -28 20 -15 71 8 31
-5 36 -25 9z"/>
<path d="M12291 2744 c-29 -21 -27 -52 3 -60 30 -7 47 2 40 21 -8 20 29 37 49
22 16 -12 20 -27 18 -59 -1 -15 -11 -17 -67 -16 -70 1 -95 -12 -108 -58 -14
-48 72 -101 136 -83 20 5 31 2 43 -11 20 -22 79 -34 102 -22 15 9 14 11 -4 21
-20 10 -21 17 -16 95 3 50 1 91 -6 103 -24 46 -147 76 -190 47z m103 -159 c-9
-47 -41 -63 -67 -33 -15 18 -16 24 -4 42 12 17 63 38 75 30 2 -1 0 -19 -4 -39z"/>
<path d="M12852 2689 c-24 -22 -42 -29 -72 -29 -29 0 -40 -4 -40 -15 0 -8 9
-15 21 -15 11 0 18 -4 15 -8 -3 -5 -7 -19 -10 -33 -3 -13 -12 -49 -19 -79 -16
-64 -7 -94 32 -114 33 -17 71 -11 96 16 l20 21 -21 -5 c-45 -11 -50 5 -29 89
l20 78 33 -3 c40 -3 43 16 3 24 l-29 6 13 44 c7 24 10 46 6 48 -3 2 -21 -9
-39 -25z"/>
</g>
</svg>
