<?xml version="1.0" encoding="utf-8"?>
<!-- Generator: Adobe Illustrator 25.2.3, SVG Export Plug-In . SVG Version: 6.00 Build 0)  -->
<svg version="1.1" id="Capa_1" xmlns="http://www.w3.org/2000/svg" xmlns:xlink="http://www.w3.org/1999/xlink" x="0px" y="0px"
	 viewBox="0 0 792 792" style="enable-background:new 0 0 792 792;" xml:space="preserve">
<style type="text/css">
	.st0{fill:#F8AB00;}
	.st1{fill:#E9530E;}
	.st2{font-family:'KCRagsakRegular';}
	.st3{font-size:177.5408px;}
	.st4{font-family:'MADESunflower';}
	.st5{font-size:36.8045px;}
</style>
<g id="PAPAYA_BASE">
	<g>
		<path class="st0" d="M404.51,178.97c6.15-2.6,11.46,1.52,17.21,2.17c19.56,2.22,30.81,11.68,36.01,30.88
			c3.85,14.23,6.98,28.66,10.48,42.99c6.14,25.14,19.47,46.96,32.34,68.92c21.81,37.2,31.94,77.83,36.72,120.23
			c2.52,22.38,2.62,44.64-0.7,66.91c-4.35,29.13-16.08,55.21-32.98,79.12c-17.91,25.34-39.2,47.53-63.35,66.93
			c-9.93,7.98-21.1,13.5-34.53,11.84c-10.04-3.94-20.3-3.78-30.67-1.67c-22.09-1.27-35.48-14.75-44.6-33.05
			c-15.68-31.45-28.76-64.04-39.52-97.5c-7.77-24.15-13.29-48.76-14.39-74.25c-1.52-35.23,4.55-69.09,17.27-101.91
			c10.42-26.89,24.07-52.46,32.71-80.09c5.68-18.18,7.92-37.21,13.9-55.31c5.17-15.64,13.14-29.26,26.98-38.97
			c7.04-4.94,14.93-6.9,23.17-8.09C395.16,179.18,399.81,179.45,404.51,178.97z M285.55,427.6c-1.26,12.03-2.6,23.99-1.28,36.11
			c2.49,22.76,7.64,44.96,14.81,66.6c11.71,35.39,24.44,70.44,40.02,104.35c4.74,10.32,11.29,18.69,24.13,20.87
			c13.49,2.29,27.17,1.53,40.58,4.04c7.56,1.42,14.89-0.23,21.53-3.55c17.29-8.65,32.95-19.64,46.42-33.69
			c22.38-23.34,37.59-50.82,48.17-81.19c5.55-15.95,8.49-32.49,10.14-49.03c1.61-16.09,1.06-32.39-0.64-48.7
			c-3.73-35.68-12.48-69.83-28.08-102.08c-8.95-18.5-18.83-36.54-27.38-55.26c-9.01-19.74-14.19-40.72-20.91-61.22
			c-5.67-17.3-15.31-32-33.66-38.29c-22.55-7.73-51.85-4.67-63.37,25c-5.6,14.43-10.54,28.9-13.65,43.98
			c-4.69,22.7-13.5,43.87-23.42,64.62C302.58,354.37,289.65,389.6,285.55,427.6z"/>
	</g>
</g>
<g>
	<g>
		<path class="st1" d="M212.42,370.43c5.79,6.64,17.64,25.27-1.65,51.19c-11.11,14.93-52.79,14.43-67.98,13.72
			c-2.87-0.13-4.91-2.87-4.25-5.69c11.06-46.77-1.33-63.52-1.33-85.84c0-46.09,23.58-50.83,36.75-49.11
			c13.48,1.76,22.3,9.59,39.93,1.26c2.56-1.21,5.25,1.44,4.1,4.05l-18.56,41.67c-1.04,2.34-3.82,3.31-6.07,2.11l-2.87-1.53
			c-1.74-0.92-2.64-2.89-2.24-4.84c1.24-6.05,2.04-18.55-12.51-18.55c-19.2,0-23.76,33.12-12.87,48.09
			c9.58,13.17,15.7,25.77,17.21,38.89c0.35,2.97,3.31,4.83,6.1,3.84c8.79-3.1,23.82-11.72,16.33-33.31
			c-0.67-1.92,0.1-4.06,1.81-5.15l2.48-1.58C208.62,368.5,211,368.81,212.42,370.43z"/>
		<path class="st1" d="M304.63,318.02c2.12,6.5,2.97,14.06,1.7,23.6c-1.69,12.74-9.01,18-17.42,22.77
			c-1.62,0.92-1.02,3.36,0.84,3.49c11.28,0.78,17.02,7.06,14.66,23.31c-2.71,18.66-1.1,31.47,0.39,38.23
			c0.64,2.88-1.58,5.61-4.52,5.61h-22.16c-3.17,0-5.42-3.12-4.39-6.13c2.39-6.99,8.3-32.16,3.93-40.92
			c-4.2-8.43-11.18-8.89-14.9-6.08c-3.87,2.91-5.09,8.24-3.47,12.83c3.94,11.21,6.08,29.1,5.68,35.91
			c-0.15,2.47-2.16,4.39-4.62,4.39h-31.25c-2.98,0-5.18-2.81-4.49-5.72c10.91-46.51-1.42-63.22-1.42-85.48
			c0-46.09,23.58-50.82,36.75-49.11c13.87,1.81,22.87,10.99,41.66,1.22c2.29-1.2,4.96,0.74,4.45,3.3
			C305.13,303.94,302.9,312.73,304.63,318.02z M276.28,329.67c-1.57-5.37-6.06-9.41-11.55-10.17c-1.12-0.16-2.18-0.25-3.1-0.3
			c-2.37-0.13-4.79,0.07-7,0.97c-12.27,5.04-12.36,24.46-6.64,47.59c0.45,1.82,0.89,3.48,1.32,5c0.68,2.4,3.95,2.71,5.05,0.49
			c5.75-11.59,12.46-17.54,17.29-22.99C276.62,344.65,278.38,336.88,276.28,329.67z"/>
		<path class="st1" d="M387.79,338.74c0,17.96,9.5,30.66,9.5,52.02c0,43.9-23.61,46.84-36.78,45.14
			c-12.97-1.68-23.36-7.87-40.07-1.29c-3.68,1.44-7.34-2.16-6-5.89l17.47-48.82c0.96-2.66,4.02-3.87,6.51-2.54l2.08,1.11
			c1.85,0.99,2.79,3.11,2.33,5.17c-1.42,6.4-2.35,19.89,13.77,23.31c1.03,0.21,3.02,0.21,4.97,0.14c4.34-0.16,8.19-3.21,9.02-7.51
			c0.01-0.05,0.02-0.1,0.02-0.15c1.81-10.03-2.52-26.14-25.84-30.7c-18.99-3.72-30.61-7.44-30.61-35.3
			c0-14.25,4.38-28.43,6.51-34.51c0.64-1.85,2.39-3.07,4.35-3.07h14.85c2.72,0,4.86,2.37,4.59,5.09
			c-3.38,35.03,2.17,47.73,6.47,52.32c2.14,2.28,5.71,2.21,7.86-0.06c4.6-4.85,11.53-18.01,7.41-52.15
			c-0.33-2.75,1.82-5.19,4.59-5.19h19.17c3.28,0,5.52,3.32,4.28,6.38C391.45,309.11,387.79,321.46,387.79,338.74z"/>
		<path class="st1" d="M484.89,341.61c-2.21,36.08-29.96,30.8-41.92,46.83c-2.05,2.76-1.62,6.73,0.91,9.07
			c5.46,5.07,10.94,9.09,14.9,14.94c4.82,7.1,6.38,13.38,6.84,17.49c0.3,2.72-1.89,5.07-4.6,5.07h-53.32
			c-2.98,0-5.18-2.81-4.49-5.72c10.91-46.51-1.42-63.22-1.42-85.48c0-46.09,23.58-50.82,36.75-49.11c6.52,0.85,11.47,3.79,16.88,5.7
			c3.57,1.26,7.36,2.24,11.88,1.51c3.65-0.59,9.14-4.3,12.67-6c2.32-1.12,4.9,0.93,4.34,3.47c-0.6,2.75-1.15,5.71-1.18,7.59
			C482.93,318.26,485.92,325.29,484.89,341.61z M447.46,320.38c-4.96-1.76-7.67-1.35-10.58-1.22c-15.84,2.56-16.35,23.33-10.3,48.61
			c0.49,2.03,1.03,3.92,1.62,5.7c0.78,2.34,4.02,2.49,5.05,0.26c8.47-18.29,19-22.44,22.43-31.36
			C456.88,337.28,457.72,325.22,447.46,320.38z"/>
		<path class="st1" d="M568.32,300.59c-1.32,4.11-2.69,10.34-2.69,18.46c0,6.5,0.99,15.08,1.69,20.43c0.36,2.69-1.73,5.06-4.44,5.06
			h-2.78c-2.35,0-4.3-1.83-4.46-4.18c-0.04-0.64-0.09-1.24-0.14-1.72c-0.61-6.02-1.59-11.89-6.55-15.69
			c-5.06-3.89-12.23-1.14-13.71,5.08c-1.94,8.17-0.99,21.73,7.91,41.72c15.84,35.57,15.94,53.7,16.41,60.3
			c0.19,2.7-1.94,4.97-4.64,4.97h-46.88c-3.14,0-5.38-3.03-4.45-6.04c3.51-11.41,6.81-25.45,10.53-61.12
			c2.19-20.91,5.05-29.87,7.58-38.28c1.76-5.83-5.05-10.67-9.85-6.92c-4.63,3.62-7.98,9.45-9.33,15.24
			c-0.17,0.72-0.32,1.71-0.45,2.72c-0.28,2.24-2.18,3.92-4.44,3.92h-3.34c-2.71,0-4.81-2.37-4.45-5.05
			c0.72-5.37,1.71-13.94,1.71-20.44c0-8.12-1.37-14.35-2.69-18.46c-0.91-2.87,1.2-5.79,4.21-5.79h71.03
			C567.12,294.8,569.23,297.72,568.32,300.59z"/>
		<path class="st1" d="M654.79,386.01c0,45.72-20.85,48.71-40.38,48.71l-36.8,0.25c-2.98,0.03-5.2-2.77-4.52-5.67
			c10.89-46.09-1.43-62.68-1.43-84.75c0-45.72,26.39-48.71,45.39-48.71l31.77-0.25c2.99-0.03,5.21,2.77,4.53,5.67
			C642.48,347.36,654.8,363.95,654.79,386.01z M624.71,365.64c0-25.31-5.14-45.82-11.48-45.82c-6.35,0-11.48,20.52-11.48,45.82
			c0,25.3,5.14,45.81,11.48,45.81C619.58,411.45,624.71,390.94,624.71,365.64z"/>
	</g>
</g>
<g id="PAPAYA_1_">
	<path class="st0" d="M211.67,489c-1.98,32.32-26.84,27.59-37.55,41.96c-1.84,2.47-1.45,6.03,0.81,8.12
		c4.89,4.54,9.8,8.15,13.35,13.38c4.32,6.37,5.72,11.99,6.12,15.67c0.27,2.44-1.69,4.54-4.12,4.54H142.5
		c-2.67,0-4.64-2.52-4.03-5.12c9.77-41.66-1.27-56.64-1.27-76.58c0-41.29,21.12-45.53,32.92-44c5.84,0.76,10.27,3.4,15.12,5.1
		c3.2,1.13,6.59,2.01,10.64,1.35c3.27-0.52,8.19-3.85,11.35-5.38c2.08-1,4.39,0.83,3.88,3.11c-0.54,2.46-1.03,5.12-1.06,6.8
		C209.91,468.08,212.58,474.38,211.67,489z M178.13,469.97c-4.45-1.58-6.87-1.21-9.48-1.09c-14.19,2.29-14.65,20.9-9.22,43.54
		c0.44,1.82,0.92,3.52,1.45,5.11c0.69,2.1,3.6,2.23,4.53,0.23c27.05-14.2,45.04-32.97,28.33-43.18
		C194.8,470.03,187.33,474.31,178.13,469.97z"/>
	<path class="st0" d="M261.89,475.08c0,19.78,16.19,57.85,17.42,93.38c0.07,2.31-1.83,4.21-4.14,4.21h-21.4
		c-2.22,0-3.69-2.21-2.93-4.3c3.61-9.9,1.88-17.04-0.96-21.82c-3.41-5.75-12.05-5.75-15.46,0c-2.83,4.78-4.56,11.92-0.96,21.82
		c0.76,2.08-0.71,4.3-2.93,4.3h-21.42c-2.3,0-4.2-1.9-4.14-4.2c0.99-34.33,13.72-57.07,13.72-76.84c0-40.96,17.02-43.64,17.02-43.64
		h25.59c2.78,0,4.68,2.75,3.72,5.35C263.49,457.5,261.89,464.4,261.89,475.08z M250.59,509.85c-0.72-15.43-3.48-26.59-5.64-33.22
		c-0.89-2.72-4.71-2.72-5.61,0c-2.16,6.63-4.92,17.79-5.64,33.22c-0.2,4.32,3.09,7.85,7.42,7.85h2.06
		C247.51,517.7,250.8,514.17,250.59,509.85z"/>
	<path class="st0" d="M356.96,489c-1.98,32.32-26.84,27.59-37.55,41.96c-1.84,2.47-1.45,6.03,0.81,8.12
		c4.89,4.54,9.8,8.15,13.35,13.38c4.32,6.37,5.72,11.99,6.12,15.67c0.27,2.44-1.69,4.54-4.12,4.54H287.8
		c-2.67,0-4.64-2.52-4.03-5.12c9.77-41.66-1.27-56.64-1.27-76.58c0-41.29,21.12-45.53,32.92-44c5.84,0.76,10.27,3.4,15.12,5.1
		c3.2,1.13,6.59,2.01,10.64,1.35c3.27-0.52,8.19-3.85,11.35-5.38c2.08-1,4.39,0.83,3.88,3.11c-0.54,2.46-1.03,5.12-1.06,6.8
		C355.2,468.08,357.88,474.38,356.96,489z M323.42,469.97c-4.45-1.58-6.87-1.21-9.48-1.09c-14.19,2.29-14.65,20.9-9.22,43.54
		c0.44,1.82,0.92,3.52,1.45,5.11c0.69,2.1,3.6,2.23,4.53,0.23c7.58-16.38,17.02-20.1,20.1-28.09
		C331.87,485.12,332.62,474.31,323.42,469.97z"/>
	<path class="st0" d="M407.19,475.08c0,19.78,16.19,57.85,17.42,93.38c0.07,2.31-1.83,4.21-4.14,4.21h-21.4
		c-2.22,0-3.69-2.21-2.93-4.3c3.61-9.9,1.88-17.04-0.96-21.82c-3.41-5.75-12.05-5.75-15.46,0c-2.83,4.78-4.56,11.92-0.96,21.82
		c0.76,2.08-0.71,4.3-2.93,4.3H354.4c-2.3,0-4.2-1.9-4.14-4.2c0.99-34.33,13.72-57.07,13.72-76.84c0-40.96,17.02-43.64,17.02-43.64
		h25.59c2.78,0,4.68,2.75,3.72,5.35C408.78,457.5,407.19,464.4,407.19,475.08z M395.89,509.85c-0.72-15.43-3.48-26.59-5.64-33.22
		c-0.89-2.72-4.71-2.72-5.61,0c-2.16,6.63-4.92,17.79-5.64,33.22c-0.2,4.32,3.1,7.85,7.42,7.85h2.06
		C392.8,517.7,396.1,514.17,395.89,509.85z"/>
	<path class="st0" d="M496.6,486.43c0,16.09,8.51,27.47,8.51,46.6c0,39.33-21.15,41.96-32.95,40.43
		c-11.62-1.51-20.92-7.05-35.9-1.15c-3.29,1.29-6.57-1.93-5.38-5.28l15.65-43.74c0.86-2.39,3.6-3.46,5.84-2.27l1.86,0.99
		c1.66,0.89,2.5,2.78,2.09,4.63c-1.27,5.73-2.11,17.82,12.33,20.89c0.92,0.19,2.71,0.19,4.45,0.13c3.88-0.15,7.34-2.88,8.08-6.73
		c0.01-0.05,0.01-0.09,0.02-0.13c1.62-8.99-2.26-23.42-23.15-27.5c-17.02-3.33-27.42-6.66-27.42-31.62
		c0-12.77,3.92-25.47,5.83-30.92c0.58-1.66,2.14-2.75,3.89-2.75h13.3c2.44,0,4.35,2.12,4.11,4.56c-3.03,31.38,1.94,42.75,5.8,46.87
		c1.92,2.04,5.11,1.98,7.04-0.05c4.12-4.34,10.33-16.14,6.64-46.72c-0.3-2.47,1.63-4.65,4.11-4.65h17.17c2.94,0,4.94,2.98,3.83,5.72
		C499.88,459.89,496.6,470.94,496.6,486.43z"/>
	<path class="st0" d="M561.98,475.08c0,19.78,16.19,57.85,17.42,93.38c0.07,2.31-1.83,4.21-4.14,4.21h-21.4
		c-2.22,0-3.69-2.21-2.93-4.3c3.61-9.9,1.88-17.04-0.96-21.82c-3.41-5.75-12.05-5.75-15.46,0c-2.83,4.78-4.56,11.92-0.96,21.82
		c0.76,2.08-0.71,4.3-2.93,4.3h-21.42c-2.3,0-4.2-1.9-4.14-4.2c0.99-34.33,13.72-57.07,13.72-76.84c0-40.96,17.02-43.64,17.02-43.64
		h25.59c2.78,0,4.68,2.75,3.72,5.35C563.57,457.5,561.98,464.4,561.98,475.08z M550.68,509.85c-0.72-15.43-3.48-26.59-5.64-33.22
		c-0.89-2.72-4.71-2.72-5.61,0c-2.16,6.63-4.92,17.79-5.64,33.22c-0.2,4.32,3.1,7.85,7.42,7.85h2.06
		C547.59,517.7,550.88,514.17,550.68,509.85z"/>
</g>
<text transform="matrix(1 0 0 1 583.3315 572.6755)" class="st0 st2 st3">S</text>
<text transform="matrix(1 0 0 1 331.4141 612.1384)" class="st1 st4 st5">By Alejandro Glatt</text>
</svg>
